<svg xmlns="http://www.w3.org/2000/svg" viewBox="0 0 800 1000" preserveAspectRatio="xMidYMid slice" role="img" aria-label="Placeholder editorial: emprendedor hispano en su pequeño negocio">
  <defs>
    <linearGradient id="bg" x1="0" y1="0" x2="1" y2="1">
      <stop offset="0%" stop-color="#F5E9D6"/>
      <stop offset="55%" stop-color="#E5C8A4"/>
      <stop offset="100%" stop-color="#9C6B45"/>
    </linearGradient>
    <radialGradient id="lightWindow" cx="0.78" cy="0.18" r="0.5">
      <stop offset="0%" stop-color="#FFF6E2" stop-opacity="0.95"/>
      <stop offset="60%" stop-color="#FBD9A3" stop-opacity="0.35"/>
      <stop offset="100%" stop-color="#FBD9A3" stop-opacity="0"/>
    </radialGradient>
    <radialGradient id="floor" cx="0.5" cy="1" r="0.9">
      <stop offset="0%" stop-color="#5C3A22" stop-opacity="0.55"/>
      <stop offset="100%" stop-color="#5C3A22" stop-opacity="0"/>
    </radialGradient>
    <linearGradient id="figure" x1="0" y1="0" x2="0" y2="1">
      <stop offset="0%" stop-color="#3A2719"/>
      <stop offset="100%" stop-color="#1B0F08"/>
    </linearGradient>
    <linearGradient id="shirt" x1="0" y1="0" x2="0" y2="1">
      <stop offset="0%" stop-color="#C76F4A"/>
      <stop offset="100%" stop-color="#8E4226"/>
    </linearGradient>
    <linearGradient id="counter" x1="0" y1="0" x2="0" y2="1">
      <stop offset="0%" stop-color="#3D2817"/>
      <stop offset="100%" stop-color="#1F1308"/>
    </linearGradient>
    <filter id="grain">
      <feTurbulence type="fractalNoise" baseFrequency="0.9" numOctaves="2" stitchTiles="stitch"/>
      <feColorMatrix values="0 0 0 0 0  0 0 0 0 0  0 0 0 0 0  0 0 0 0.06 0"/>
    </filter>
    <filter id="soft" x="-10%" y="-10%" width="120%" height="120%">
      <feGaussianBlur stdDeviation="6"/>
    </filter>
  </defs>

  <!-- Fondo cálido -->
  <rect width="800" height="1000" fill="url(#bg)"/>
  <rect width="800" height="1000" fill="url(#lightWindow)"/>

  <!-- Pared de fondo: ladrillo sutil -->
  <g opacity="0.10" stroke="#5C3A22" stroke-width="1.4">
    <line x1="0" y1="180" x2="800" y2="180"/>
    <line x1="0" y1="280" x2="800" y2="280"/>
    <line x1="0" y1="380" x2="800" y2="380"/>
    <line x1="0" y1="480" x2="800" y2="480"/>
    <line x1="80" y1="180" x2="80" y2="280"/>
    <line x1="240" y1="180" x2="240" y2="280"/>
    <line x1="400" y1="180" x2="400" y2="280"/>
    <line x1="560" y1="180" x2="560" y2="280"/>
    <line x1="720" y1="180" x2="720" y2="280"/>
    <line x1="160" y1="280" x2="160" y2="380"/>
    <line x1="320" y1="280" x2="320" y2="380"/>
    <line x1="480" y1="280" x2="480" y2="380"/>
    <line x1="640" y1="280" x2="640" y2="380"/>
  </g>

  <!-- Estante con plantas y productos -->
  <rect x="60" y="240" width="320" height="14" fill="#3D2817" opacity="0.7"/>
  <ellipse cx="120" cy="232" rx="22" ry="10" fill="#6F8F7B" opacity="0.85"/>
  <path d="M 110 232 Q 116 200 122 232 Q 128 196 134 232" stroke="#6F8F7B" stroke-width="3" fill="none" opacity="0.9"/>
  <rect x="180" y="218" width="32" height="22" rx="2" fill="#C9A961" opacity="0.85"/>
  <rect x="225" y="222" width="22" height="18" rx="2" fill="#FBF8F2" opacity="0.85"/>
  <rect x="265" y="214" width="28" height="26" rx="2" fill="#5B4A6B" opacity="0.7"/>
  <circle cx="335" cy="230" r="14" fill="#3A8C9C" opacity="0.55"/>

  <!-- Mostrador / counter -->
  <rect x="0" y="700" width="800" height="300" fill="url(#counter)"/>
  <rect x="0" y="700" width="800" height="6" fill="#C9A961" opacity="0.30"/>
  <rect width="800" height="1000" fill="url(#floor)"/>

  <!-- Laptop sobre mostrador -->
  <g transform="translate(440 680)">
    <rect x="0" y="0" width="240" height="140" rx="10" fill="#1B0F08"/>
    <rect x="8" y="8" width="224" height="124" rx="6" fill="#FBF8F2"/>
    <rect x="20" y="20" width="80" height="6" rx="2" fill="#0E1A1F" opacity="0.7"/>
    <rect x="20" y="34" width="120" height="4" rx="2" fill="#0E1A1F" opacity="0.4"/>
    <rect x="20" y="44" width="100" height="4" rx="2" fill="#0E1A1F" opacity="0.4"/>
    <rect x="20" y="60" width="60" height="22" rx="4" fill="#C76F4A"/>
    <circle cx="180" cy="80" r="22" fill="#C9A961" opacity="0.30"/>
  </g>
  <rect x="430" y="816" width="260" height="10" rx="3" fill="#000" opacity="0.40"/>

  <!-- Figura humana — silueta editorial cálida (placeholder) -->
  <g transform="translate(220 320)">
    <!-- Cuerpo (camisa terracotta) -->
    <path d="M 60 220 Q 60 140 140 140 Q 220 140 220 220 L 240 420 L 40 420 Z" fill="url(#shirt)"/>
    <!-- Cuello -->
    <rect x="120" y="120" width="40" height="40" fill="#3A2719"/>
    <!-- Cabeza -->
    <ellipse cx="140" cy="90" rx="58" ry="68" fill="url(#figure)"/>
    <!-- Pelo -->
    <path d="M 82 70 Q 90 30 140 24 Q 190 30 198 75 Q 198 50 170 38 Q 140 28 110 38 Q 88 50 82 70 Z" fill="#0F0703"/>
    <!-- Sombras de luz lateral cálida -->
    <path d="M 140 24 Q 196 32 198 80 L 198 120 Q 175 90 165 50 Q 158 30 140 24 Z" fill="#C9A961" opacity="0.18"/>
    <!-- Brazo apoyado -->
    <path d="M 180 280 Q 240 300 280 360 L 250 380 Q 220 340 175 320 Z" fill="#3A2719"/>
  </g>

  <!-- Halo dorado detrás -->
  <circle cx="540" cy="280" r="180" fill="#C9A961" opacity="0.18" filter="url(#soft)"/>

  <!-- Grano editorial -->
  <rect width="800" height="1000" filter="url(#grain)" opacity="0.55"/>
</svg>
